<?xml version="1.0" encoding="UTF-8" standalone="no"?>
<!-- Created with Inkscape (http://www.inkscape.org/) -->

<svg
   width="800"
   height="1074"
   viewBox="0 0 800 1074"
   version="1.1"
   id="svg5"
   xml:space="preserve"
   inkscape:version="1.2.2 (732a01da63, 2022-12-09)"
   sodipodi:docname="pin.svg"
   xmlns:inkscape="http://www.inkscape.org/namespaces/inkscape"
   xmlns:sodipodi="http://sodipodi.sourceforge.net/DTD/sodipodi-0.dtd"
   xmlns="http://www.w3.org/2000/svg"
   xmlns:svg="http://www.w3.org/2000/svg"><sodipodi:namedview
     id="namedview7"
     pagecolor="#505050"
     bordercolor="#ffffff"
     borderopacity="1"
     inkscape:showpageshadow="0"
     inkscape:pageopacity="0"
     inkscape:pagecheckerboard="1"
     inkscape:deskcolor="#505050"
     inkscape:document-units="px"
     showgrid="false"
     showguides="true"
     inkscape:zoom="0.35355339"
     inkscape:cx="-38.183766"
     inkscape:cy="397.39401"
     inkscape:window-width="1920"
     inkscape:window-height="1051"
     inkscape:window-x="2391"
     inkscape:window-y="-9"
     inkscape:window-maximized="1"
     inkscape:current-layer="layer1"><inkscape:page
       x="0"
       y="0"
       width="800"
       height="1074"
       id="page185" /><inkscape:page
       x="1930"
       y="0"
       width="800"
       height="800"
       id="page187" /><sodipodi:guide
       position="962.14765,633.01566"
       orientation="1,0"
       id="guide390"
       inkscape:locked="false" /><sodipodi:guide
       position="964.4375,179.9375"
       orientation="0,-1"
       id="guide671"
       inkscape:locked="false" /></sodipodi:namedview><defs
     id="defs2" /><g
     inkscape:label="Katman 1"
     inkscape:groupmode="layer"
     id="layer1"><path
       id="path382"
       style="fill:#f9f9f9;stroke-width:1.92431"
       d="M 399.90637,0.0100958 C 351.91752,-0.0107362 315.8735,5.5641155 272.82146,19.663579 173.28648,52.261071 84.85185,130.18565 39.113696,225.59608 11.268156,283.68221 0.09517024,333.41478 0.05083038,399.464 -0.00394707,481.57964 18.715659,544.54135 64.983223,617.87317 c 8.346948,13.22962 65.513437,99.39069 127.037627,191.46866 172.68565,258.44357 166.59324,239.68437 180.83734,253.83897 5.13693,5.1047 11.96281,10.2687 23.68027,10.3085 19.90942,0.068 28.03589,-6.4569 31.87631,-10.6944 8.79194,-9.701 34.42256,-37.024 173.50497,-244.79313 140.54151,-209.94876 150.93907,-226.49501 169.3161,-269.40275 9.53666,-22.26699 19.46671,-57.47238 24.40475,-86.52051 5.3899,-31.70665 5.84336,-88.93304 0.95293,-120.34124 C 775.78028,208.07071 691.84629,95.067257 570.39582,37.201313 517.11798,11.816696 463.12422,0.0375136 399.90637,0.0100958 Z M 337.46773,186.10796 h 122.74836 c 11.29866,5.8e-4 20.45775,9.16063 20.45675,20.45938 v 102.28898 h 102.28902 c 11.2977,5.9e-4 20.45619,9.15905 20.45669,20.45676 v 265.95085 h -184.1186 v -61.37287 c 0,-11.29869 -9.1594,-20.45805 -20.45806,-20.45805 -11.29865,0 -20.45803,9.15936 -20.45803,20.45805 v 61.37287 H 194.26262 V 329.31308 c 5.7e-4,-11.29874 9.16064,-20.45763 20.45936,-20.45676 h 102.289 V 206.56734 c -8.7e-4,-11.29875 9.15801,-20.4588 20.45675,-20.45938 z m 40.91613,61.37549 v 40.9135 h 40.91609 v -40.9135 z m 0,81.82963 v 40.91611 h 40.91609 v -40.91611 z m -143.20511,20.45936 v 40.91351 h 40.91611 v -40.91351 z m 286.41026,0 v 40.91351 h 40.91607 v -40.91351 z m -143.20515,61.37288 v 40.91612 h 40.91609 v -40.91612 z m -143.20511,20.45674 v 40.91612 h 40.91611 v -40.91612 z m 286.41026,0 v 40.91612 h 40.91607 v -40.91612 z m -286.41026,81.83225 v 40.91611 h 40.91611 v -40.91611 z m 286.41026,0 v 40.91611 h 40.91607 v -40.91611 z"
       sodipodi:nodetypes="ssscsssssssscssccccccccssscccccccccccccccccccccccccccccccccccccccccccccccccccc" /></g><path
     style="fill:#f9f9f9"
     d="m 1035,331.5 27,-12"
     id="path514" /></svg>
